<svg width="24" height="25" viewBox="0 0 24 25" fill="none" xmlns="http://www.w3.org/2000/svg">
<path d="M19 5.5H5C3.89543 5.5 3 6.39543 3 7.5V17.5C3 18.6046 3.89543 19.5 5 19.5H19C20.1046 19.5 21 18.6046 21 17.5V7.5C21 6.39543 20.1046 5.5 19 5.5Z" stroke="white" stroke-width="2" stroke-linecap="round" stroke-linejoin="round"/>
<path d="M3 7.5L12 13.5L21 7.5" stroke="white" stroke-width="2" stroke-linecap="round" stroke-linejoin="round"/>
<path d="M19 5.5H5C3.89543 5.5 3 6.39543 3 7.5V17.5C3 18.6046 3.89543 19.5 5 19.5H19C20.1046 19.5 21 18.6046 21 17.5V7.5C21 6.39543 20.1046 5.5 19 5.5Z" stroke="#010032" stroke-width="2" stroke-linecap="round" stroke-linejoin="round"/>
<path d="M3 7.5L12 13.5L21 7.5" stroke="#010032" stroke-width="2" stroke-linecap="round" stroke-linejoin="round"/>
</svg>
